<svg width="100" height="100" viewBox="0 0 168 168" xmlns="http://www.w3.org/2000/svg">
  <circle fill="#1ED760" cx="84" cy="84" r="84"/>
  <path d="M123.3 115.3c-1.7 2.6-5.2 3.3-7.8 1.6-21.3-13.1-48.2-16.1-79.8-8.6-2.9.7-5.9-1-6.7-3.9-.8-3 .9-6.1 3.9-6.9 34.9-8.1 65.7-4.7 90.7 10.5 2.6 1.7 3.4 5.1 1.9 7.3zm10.6-20.7c-2.1 3-6.2 3.9-9.3 1.6-24.3-15-61.3-19.3-90-10.3-3.5 1-7.3-.9-8.4-4.4-1.1-3.5.9-7.2 4.3-8.3 32.3-10.1 74.8-5.5 103.2 11.3 3.1 1.9 4 6 2 9.1zm1.6-22.2c-27.8-16.5-74.4-18.2-100.8-9.8-4.1 1.3-8.5-1-9.8-5.1-1.3-4.1 1-8.5 5.1-9.8 30.6-9.4 82.8-7.4 114.9 12.1 3.8 2.3 5 7.3 2.2 11-2.4 3.4-7.1 4.4-10.6 2.1z" fill="#000"/>
</svg>
